<svg xmlns="http://www.w3.org/2000/svg" xmlns:xlink="http://www.w3.org/1999/xlink" width="500" zoomAndPan="magnify" viewBox="0 0 375 374.999991" height="500" preserveAspectRatio="xMidYMid meet" version="1.0"><defs><g/><clipPath id="a22695a6f0"><path d="M 128.941406 92.699219 L 245.941406 92.699219 L 245.941406 209.699219 L 128.941406 209.699219 Z M 128.941406 92.699219 " clip-rule="nonzero"/></clipPath></defs><rect x="-37.5" width="450" fill="#ffffff" y="-37.499999" height="449.999989" fill-opacity="1"/><rect x="-37.5" width="450" fill="#ffffff" y="-37.499999" height="449.999989" fill-opacity="1"/><g clip-path="url(#a22695a6f0)"><path fill="#ffffff" d="M 192.398438 139.707031 C 191.148438 138.457031 189.394531 137.65625 187.46875 137.65625 C 185.542969 137.65625 183.792969 138.433594 182.542969 139.707031 C 181.292969 140.957031 180.492188 142.710938 180.492188 144.636719 C 180.492188 146.5625 181.265625 148.3125 182.542969 149.5625 C 183.792969 150.8125 185.542969 151.589844 187.46875 151.589844 C 189.394531 151.589844 191.148438 150.8125 192.398438 149.5625 C 193.648438 148.3125 194.421875 146.5625 194.421875 144.636719 C 194.421875 142.785156 193.699219 141.109375 192.546875 139.859375 C 192.496094 139.808594 192.449219 139.757812 192.398438 139.707031 Z M 187.46875 130.527344 C 191.371094 130.527344 194.898438 132.105469 197.449219 134.65625 C 197.523438 134.730469 197.601562 134.804688 197.648438 134.882812 C 200.078125 137.40625 201.578125 140.859375 201.578125 144.636719 C 201.578125 148.511719 200 152.039062 197.449219 154.589844 L 197.425781 154.617188 C 194.875 157.167969 191.347656 158.742188 187.46875 158.742188 C 183.59375 158.742188 180.066406 157.167969 177.515625 154.617188 C 174.964844 152.0625 173.386719 148.539062 173.386719 144.636719 C 173.386719 140.734375 174.964844 137.207031 177.515625 134.65625 C 180.042969 132.105469 183.570312 130.527344 187.46875 130.527344 Z M 152.753906 176.699219 C 151.226562 175.449219 150.976562 173.222656 152.230469 171.671875 C 153.480469 170.148438 155.707031 169.898438 157.257812 171.148438 C 162.484375 175.375 166.386719 180.152344 168.988281 185.503906 C 171.585938 190.859375 172.839844 196.734375 172.738281 203.136719 C 172.714844 205.089844 171.113281 206.664062 169.136719 206.640625 C 168.738281 206.640625 168.359375 206.566406 167.984375 206.441406 C 156.480469 202.386719 146.601562 194.808594 139.671875 184.980469 C 132.917969 175.476562 128.941406 163.820312 128.941406 151.265625 C 128.941406 149.289062 130.542969 147.6875 132.519531 147.6875 C 148.675781 147.6875 163.308594 154.238281 173.914062 164.820312 C 179.867188 170.773438 184.542969 177.976562 187.496094 186.03125 C 190.445312 177.976562 195.125 170.773438 201.078125 164.820312 C 211.65625 154.238281 226.289062 147.6875 242.472656 147.6875 C 244.445312 147.6875 246.046875 149.289062 246.046875 151.265625 C 246.046875 163.820312 242.070312 175.476562 235.34375 185.003906 C 235.292969 185.078125 235.21875 185.179688 235.144531 185.253906 C 228.214844 194.933594 218.410156 202.4375 207.003906 206.464844 C 205.152344 207.117188 203.101562 206.140625 202.453125 204.289062 C 202.300781 203.839844 202.226562 203.363281 202.253906 202.914062 C 202.175781 196.609375 203.453125 190.808594 206.027344 185.503906 C 208.628906 180.152344 212.53125 175.351562 217.757812 171.148438 C 219.285156 169.898438 221.535156 170.148438 222.785156 171.671875 C 224.039062 173.199219 223.789062 175.449219 222.261719 176.699219 C 217.859375 180.277344 214.582031 184.253906 212.457031 188.605469 C 211.082031 191.433594 210.179688 194.433594 209.730469 197.636719 C 217.609375 193.859375 224.363281 188.15625 229.390625 181.128906 C 229.441406 181.054688 229.488281 180.976562 229.539062 180.902344 C 234.792969 173.472656 238.121094 164.570312 238.820312 154.941406 C 226.113281 155.839844 214.65625 161.367188 206.179688 169.847656 C 196.875 179.152344 191.121094 191.984375 191.121094 206.191406 C 191.121094 208.164062 189.519531 209.765625 187.546875 209.765625 C 185.570312 209.765625 183.96875 208.164062 183.96875 206.191406 C 183.96875 192.007812 178.214844 179.152344 168.910156 169.847656 C 160.433594 161.367188 149.003906 155.839844 136.269531 154.941406 C 136.945312 164.570312 140.296875 173.472656 145.550781 180.902344 C 150.601562 188.03125 157.40625 193.808594 165.359375 197.636719 C 164.910156 194.433594 163.984375 191.433594 162.632812 188.605469 C 160.433594 184.230469 157.15625 180.277344 152.753906 176.699219 Z M 151.152344 114.898438 C 155.90625 110.167969 161.558594 106.34375 167.835938 103.742188 C 173.863281 101.238281 180.492188 99.863281 187.46875 99.863281 C 194.449219 99.863281 201.078125 101.238281 207.105469 103.742188 C 213.382812 106.34375 219.035156 110.144531 223.789062 114.898438 C 225.1875 116.273438 227.4375 116.273438 228.816406 114.871094 C 230.191406 113.472656 230.191406 111.21875 228.789062 109.84375 C 223.414062 104.464844 216.960938 100.140625 209.804688 97.164062 C 202.902344 94.3125 195.375 92.734375 187.46875 92.734375 C 179.566406 92.734375 172.039062 94.3125 165.132812 97.164062 C 157.957031 100.140625 151.527344 104.464844 146.125 109.84375 C 144.726562 111.21875 144.726562 113.472656 146.101562 114.871094 C 147.5 116.273438 149.753906 116.273438 151.152344 114.898438 Z M 215.507812 123.25 C 216.882812 124.652344 216.882812 126.902344 215.484375 128.277344 C 214.082031 129.652344 211.832031 129.652344 210.457031 128.253906 C 207.453125 125.25 203.878906 122.851562 199.902344 121.199219 L 199.75 121.125 C 195.972656 119.597656 191.824219 118.75 187.46875 118.75 C 183.117188 118.75 178.964844 119.597656 175.1875 121.125 L 175.039062 121.199219 C 171.0625 122.851562 167.460938 125.277344 164.484375 128.253906 C 163.109375 129.652344 160.859375 129.652344 159.457031 128.277344 C 158.054688 126.902344 158.054688 124.652344 159.433594 123.25 C 163.082031 119.574219 167.460938 116.621094 172.3125 114.621094 C 172.386719 114.597656 172.4375 114.570312 172.511719 114.546875 C 177.140625 112.644531 182.21875 111.59375 187.496094 111.59375 C 192.773438 111.59375 197.824219 112.644531 202.476562 114.546875 C 202.550781 114.570312 202.601562 114.597656 202.675781 114.621094 C 207.480469 116.621094 211.855469 119.574219 215.507812 123.25 Z M 215.507812 123.25 " fill-opacity="1" fill-rule="evenodd"/></g><g fill="#ffffff" fill-opacity="1"><g transform="translate(51.802933, 248.706166)"><g><path d="M 14.109375 -28.710938 L 3.28125 -28.710938 L 3.28125 0 L 14.109375 0 C 22.558594 0 28.671875 -6.03125 28.671875 -14.355469 C 28.671875 -22.683594 22.558594 -28.710938 14.109375 -28.710938 Z M 13.988281 -5.742188 L 9.476562 -5.742188 L 9.476562 -22.929688 L 13.988281 -22.929688 C 18.910156 -22.929688 22.3125 -19.441406 22.3125 -14.355469 C 22.3125 -9.351562 18.910156 -5.742188 13.988281 -5.742188 Z M 13.988281 -5.742188 "/></g></g></g><g fill="#ffffff" fill-opacity="1"><g transform="translate(82.19551, 248.706166)"><g><path d="M 2.871094 -25.101562 L 8.820312 -25.101562 L 8.820312 -30.640625 L 2.871094 -30.640625 Z M 2.871094 0 L 8.859375 0 L 8.859375 -22.148438 L 2.871094 -22.148438 Z M 2.871094 0 "/></g></g></g><g fill="#ffffff" fill-opacity="1"><g transform="translate(93.925978, 248.706166)"><g><path d="M 10.707031 0.65625 C 16.324219 0.65625 20.015625 -2.296875 20.015625 -6.808594 C 20.015625 -12.222656 15.382812 -12.960938 11.773438 -13.617188 C 9.476562 -14.027344 7.589844 -14.398438 7.589844 -15.875 C 7.589844 -17.144531 8.695312 -17.964844 10.542969 -17.964844 C 12.632812 -17.964844 13.863281 -17.105469 13.90625 -15.339844 L 19.605469 -15.339844 C 19.566406 -19.769531 16.039062 -22.765625 10.707031 -22.765625 C 5.375 -22.765625 1.804688 -19.851562 1.804688 -15.667969 C 1.804688 -10.460938 6.316406 -9.515625 9.84375 -8.902344 C 12.183594 -8.53125 14.109375 -8.082031 14.109375 -6.5625 C 14.109375 -5.085938 12.59375 -4.308594 10.953125 -4.308594 C 8.820312 -4.308594 7.300781 -5.292969 7.261719 -7.261719 L 1.4375 -7.261719 C 1.4375 -2.542969 5.167969 0.65625 10.707031 0.65625 Z M 10.707031 0.65625 "/></g></g></g><g fill="#ffffff" fill-opacity="1"><g transform="translate(115.45918, 248.706166)"><g><path d="M 21.125 -22.148438 L 20.097656 -20.097656 C 18.210938 -21.78125 15.75 -22.765625 13.003906 -22.765625 C 6.316406 -22.765625 1.394531 -17.761719 1.394531 -11.035156 C 1.394531 -4.308594 6.316406 0.699219 13.003906 0.699219 C 15.300781 0.699219 17.390625 0 19.113281 -1.191406 L 19.113281 8 L 25.101562 8 L 25.101562 -22.109375 Z M 13.496094 -4.964844 C 10.007812 -4.964844 7.464844 -7.589844 7.464844 -11.035156 C 7.464844 -14.519531 10.007812 -17.105469 13.496094 -17.105469 C 16.980469 -17.105469 19.523438 -14.519531 19.523438 -11.035156 C 19.523438 -7.589844 16.980469 -4.964844 13.496094 -4.964844 Z M 13.496094 -4.964844 "/></g></g></g><g fill="#ffffff" fill-opacity="1"><g transform="translate(143.431834, 248.706166)"><g><path d="M 12.960938 0.65625 C 19.238281 0.65625 23.378906 -3.363281 23.378906 -9.351562 L 23.378906 -22.148438 L 17.390625 -22.148438 L 17.390625 -10.007812 C 17.390625 -6.890625 15.75 -5.003906 12.960938 -5.003906 C 10.214844 -5.003906 8.53125 -6.851562 8.53125 -10.007812 L 8.53125 -22.148438 L 2.542969 -22.148438 L 2.542969 -9.351562 C 2.542969 -3.363281 6.726562 0.65625 12.960938 0.65625 Z M 12.960938 0.65625 "/></g></g></g><g fill="#ffffff" fill-opacity="1"><g transform="translate(169.394724, 248.706166)"><g><path d="M 24.363281 -11.117188 C 24.363281 -17.515625 19.6875 -22.765625 12.878906 -22.765625 C 6.316406 -22.765625 1.394531 -17.71875 1.394531 -11.074219 C 1.394531 -4.429688 6.359375 0.65625 12.878906 0.65625 C 18.046875 0.65625 22.273438 -2.421875 23.871094 -7.261719 L 17.597656 -7.261719 C 16.695312 -5.660156 14.972656 -4.675781 12.878906 -4.675781 C 9.96875 -4.675781 8 -6.359375 7.464844 -9.394531 L 24.242188 -9.394531 C 24.324219 -9.96875 24.363281 -10.542969 24.363281 -11.117188 Z M 12.878906 -17.636719 C 15.585938 -17.636719 17.515625 -16.160156 18.375 -13.453125 L 7.628906 -13.453125 C 8.328125 -16.078125 10.214844 -17.636719 12.878906 -17.636719 Z M 12.878906 -17.636719 "/></g></g></g><g fill="#ffffff" fill-opacity="1"><g transform="translate(195.152534, 248.706166)"><g><path d="M 21.492188 -28.710938 L 14.4375 -8.410156 L 7.179688 -28.710938 L 0.328125 -28.710938 L 11.527344 0 L 17.390625 0 L 28.261719 -28.710938 Z M 21.492188 -28.710938 "/></g></g></g><g fill="#ffffff" fill-opacity="1"><g transform="translate(223.945501, 248.706166)"><g><path d="M 24.363281 -11.117188 C 24.363281 -17.515625 19.6875 -22.765625 12.878906 -22.765625 C 6.316406 -22.765625 1.394531 -17.71875 1.394531 -11.074219 C 1.394531 -4.429688 6.359375 0.65625 12.878906 0.65625 C 18.046875 0.65625 22.273438 -2.421875 23.871094 -7.261719 L 17.597656 -7.261719 C 16.695312 -5.660156 14.972656 -4.675781 12.878906 -4.675781 C 9.96875 -4.675781 8 -6.359375 7.464844 -9.394531 L 24.242188 -9.394531 C 24.324219 -9.96875 24.363281 -10.542969 24.363281 -11.117188 Z M 12.878906 -17.636719 C 15.585938 -17.636719 17.515625 -16.160156 18.375 -13.453125 L 7.628906 -13.453125 C 8.328125 -16.078125 10.214844 -17.636719 12.878906 -17.636719 Z M 12.878906 -17.636719 "/></g></g></g><g fill="#ffffff" fill-opacity="1"><g transform="translate(249.703312, 248.706166)"><g><path d="M 14.191406 -22.273438 C 11.320312 -22.273438 9.351562 -21.371094 7.753906 -19.402344 L 6.6875 -22.148438 L 2.871094 -22.148438 L 2.871094 0 L 8.859375 0 L 8.859375 -11.484375 C 8.859375 -15.09375 10.171875 -16.613281 13.535156 -16.613281 L 16.160156 -16.613281 L 16.160156 -22.273438 Z M 14.191406 -22.273438 "/></g></g></g><g fill="#ffffff" fill-opacity="1"><g transform="translate(266.396671, 248.706166)"><g><path d="M 19.113281 -30.105469 L 19.113281 -20.917969 C 17.390625 -22.109375 15.339844 -22.765625 13.042969 -22.765625 C 6.316406 -22.765625 1.394531 -17.761719 1.394531 -11.035156 C 1.394531 -4.347656 6.316406 0.699219 13.042969 0.699219 C 15.75 0.699219 18.128906 -0.246094 19.976562 -1.804688 L 20.671875 0.0429688 L 25.101562 0.0429688 L 25.101562 -30.105469 Z M 13.535156 -4.964844 C 10.050781 -4.964844 7.507812 -7.589844 7.507812 -11.035156 C 7.507812 -14.519531 10.050781 -17.105469 13.535156 -17.105469 C 17.023438 -17.105469 19.566406 -14.519531 19.566406 -11.035156 C 19.566406 -7.589844 17.023438 -4.964844 13.535156 -4.964844 Z M 13.535156 -4.964844 "/></g></g></g><g fill="#ffffff" fill-opacity="1"><g transform="translate(294.410341, 248.706166)"><g><path d="M 24.363281 -11.117188 C 24.363281 -17.515625 19.6875 -22.765625 12.878906 -22.765625 C 6.316406 -22.765625 1.394531 -17.71875 1.394531 -11.074219 C 1.394531 -4.429688 6.359375 0.65625 12.878906 0.65625 C 18.046875 0.65625 22.273438 -2.421875 23.871094 -7.261719 L 17.597656 -7.261719 C 16.695312 -5.660156 14.972656 -4.675781 12.878906 -4.675781 C 9.96875 -4.675781 8 -6.359375 7.464844 -9.394531 L 24.242188 -9.394531 C 24.324219 -9.96875 24.363281 -10.542969 24.363281 -11.117188 Z M 12.878906 -17.636719 C 15.585938 -17.636719 17.515625 -16.160156 18.375 -13.453125 L 7.628906 -13.453125 C 8.328125 -16.078125 10.214844 -17.636719 12.878906 -17.636719 Z M 12.878906 -17.636719 "/></g></g></g><g fill="#ffffff" fill-opacity="1"><g transform="translate(63.051995, 274.957043)"><g><path d="M 5.148438 -10.472656 L 1.195312 -10.472656 L 1.195312 0 L 5.148438 0 C 8.230469 0 10.457031 -2.199219 10.457031 -5.238281 C 10.457031 -8.273438 8.230469 -10.472656 5.148438 -10.472656 Z M 5.101562 -2.09375 L 3.457031 -2.09375 L 3.457031 -8.363281 L 5.101562 -8.363281 C 6.898438 -8.363281 8.140625 -7.09375 8.140625 -5.238281 C 8.140625 -3.410156 6.898438 -2.09375 5.101562 -2.09375 Z M 5.101562 -2.09375 "/></g></g></g><g fill="#ffffff" fill-opacity="1"><g transform="translate(77.095629, 274.957043)"><g><path d="M 3.457031 -2.09375 L 3.457031 -4.25 L 7.09375 -4.25 L 7.09375 -6.300781 L 3.457031 -6.300781 L 3.457031 -8.378906 L 7.480469 -8.378906 L 7.480469 -10.472656 L 1.195312 -10.472656 L 1.195312 0 L 7.644531 0 L 7.644531 -2.09375 Z M 3.457031 -2.09375 "/></g></g></g><g fill="#ffffff" fill-opacity="1"><g transform="translate(88.417789, 274.957043)"><g><path d="M 7.824219 -10.472656 L 7.824219 -4.085938 L 3.230469 -10.472656 L 1.195312 -10.472656 L 1.195312 0 L 3.410156 0 L 3.410156 -6.539062 L 8.15625 0 L 10.054688 0 L 10.054688 -10.472656 Z M 7.824219 -10.472656 "/></g></g></g><g fill="#ffffff" fill-opacity="1"><g transform="translate(102.625908, 274.957043)"><g><path d="M 4.519531 -11.476562 L 6.164062 -11.476562 L 7.675781 -13.601562 L 5.339844 -13.601562 Z M 5.417969 0.238281 C 7.886719 0.238281 9.742188 -1.480469 9.742188 -3.933594 L 9.742188 -10.472656 L 7.464844 -10.472656 L 7.464844 -4.039062 C 7.464844 -2.738281 6.613281 -1.898438 5.417969 -1.898438 C 4.203125 -1.898438 3.351562 -2.738281 3.351562 -4.039062 L 3.351562 -10.472656 L 1.078125 -10.472656 L 1.078125 -3.933594 C 1.078125 -1.480469 2.933594 0.238281 5.417969 0.238281 Z M 5.417969 0.238281 "/></g></g></g><g fill="#ffffff" fill-opacity="1"><g transform="translate(116.415345, 274.957043)"><g><path d="M 7.824219 -10.472656 L 7.824219 -4.085938 L 3.230469 -10.472656 L 1.195312 -10.472656 L 1.195312 0 L 3.410156 0 L 3.410156 -6.539062 L 8.15625 0 L 10.054688 0 L 10.054688 -10.472656 Z M 7.824219 -10.472656 "/></g></g></g><g fill="#ffffff" fill-opacity="1"><g transform="translate(130.623464, 274.957043)"><g><path d="M 6 0.238281 C 8.589844 0.238281 10.625 -1.496094 11.101562 -4.085938 L 8.8125 -4.085938 C 8.4375 -2.769531 7.375 -1.929688 6 -1.929688 C 4.21875 -1.929688 2.886719 -3.335938 2.886719 -5.222656 C 2.886719 -7.105469 4.21875 -8.527344 6 -8.527344 C 7.316406 -8.527344 8.363281 -7.75 8.796875 -6.523438 L 11.058594 -6.523438 C 10.578125 -9.007812 8.542969 -10.699219 6 -10.699219 C 2.917969 -10.699219 0.582031 -8.335938 0.582031 -5.222656 C 0.582031 -2.125 2.917969 0.238281 6 0.238281 Z M 6 0.238281 "/></g></g></g><g fill="#ffffff" fill-opacity="1"><g transform="translate(145.115695, 274.957043)"><g><path d="M 1.195312 0 L 3.457031 0 L 3.457031 -10.472656 L 1.195312 -10.472656 Z M 1.195312 0 "/></g></g></g><g fill="#ffffff" fill-opacity="1"><g transform="translate(152.744434, 274.957043)"><g><path d="M 8.140625 0 L 10.609375 0 L 6.375 -10.472656 L 4.234375 -10.472656 L 0.121094 0 L 2.527344 0 L 3.246094 -1.976562 L 7.40625 -1.976562 Z M 5.328125 -7.707031 L 6.703125 -3.949219 L 3.949219 -3.949219 Z M 5.328125 -7.707031 "/></g></g></g><g fill="#ffffff" fill-opacity="1"><g transform="translate(166.44415, 274.957043)"><g><path d="M 4.667969 0.210938 C 6.835938 0.210938 8.632812 -0.882812 8.632812 -3.140625 C 8.632812 -5.492188 6.628906 -5.984375 5.042969 -6.390625 C 3.921875 -6.660156 3.023438 -6.882812 3.023438 -7.617188 C 3.023438 -8.304688 3.753906 -8.617188 4.488281 -8.617188 C 5.339844 -8.617188 6.089844 -8.199219 6.089844 -7.285156 L 8.320312 -7.285156 C 8.320312 -9.382812 6.957031 -10.667969 4.546875 -10.667969 C 2.230469 -10.667969 0.75 -9.53125 0.75 -7.527344 C 0.75 -5.265625 2.664062 -4.804688 4.25 -4.414062 C 5.386719 -4.160156 6.34375 -3.933594 6.34375 -3.113281 C 6.34375 -2.335938 5.507812 -1.886719 4.652344 -1.886719 C 3.726562 -1.886719 2.886719 -2.378906 2.886719 -3.382812 L 0.597656 -3.382812 C 0.597656 -1.136719 2.257812 0.210938 4.667969 0.210938 Z M 4.667969 0.210938 "/></g></g></g><g fill="#ffffff" fill-opacity="1"><g transform="translate(178.663498, 274.957043)"><g/></g></g><g fill="#ffffff" fill-opacity="1"><g transform="translate(185.200661, 274.957043)"><g><path d="M 8.140625 0 L 10.609375 0 L 6.375 -10.472656 L 4.234375 -10.472656 L 0.121094 0 L 2.527344 0 L 3.246094 -1.976562 L 7.40625 -1.976562 Z M 5.328125 -7.707031 L 6.703125 -3.949219 L 3.949219 -3.949219 Z M 5.328125 -7.707031 "/></g></g></g><g fill="#ffffff" fill-opacity="1"><g transform="translate(198.900382, 274.957043)"><g><path d="M 14.019531 0 L 12.402344 -10.472656 L 10.128906 -10.472656 L 7.285156 -4.039062 L 4.445312 -10.472656 L 2.183594 -10.472656 L 0.539062 0 L 2.84375 0 L 3.875 -6.824219 L 7.003906 -0.015625 L 7.554688 -0.015625 L 10.683594 -6.824219 L 11.714844 0 Z M 14.019531 0 "/></g></g></g><g fill="#ffffff" fill-opacity="1"><g transform="translate(216.443052, 274.957043)"><g><path d="M 7.496094 -5.519531 C 8.230469 -6.03125 8.679688 -6.867188 8.679688 -7.765625 C 8.679688 -9.308594 7.332031 -10.457031 5.519531 -10.457031 L 1.195312 -10.457031 L 1.195312 0.015625 L 5.640625 0.015625 C 7.464844 0.015625 8.949219 -1.332031 8.949219 -3.007812 C 8.949219 -4.128906 8.410156 -5.027344 7.496094 -5.519531 Z M 6.480469 -7.421875 C 6.480469 -6.761719 6.015625 -6.300781 5.3125 -6.300781 L 3.410156 -6.300781 L 3.410156 -8.527344 L 5.3125 -8.527344 C 6.015625 -8.527344 6.480469 -8.078125 6.480469 -7.421875 Z M 5.429688 -2.066406 L 3.410156 -2.066406 L 3.410156 -4.414062 L 5.429688 -4.414062 C 6.179688 -4.414062 6.671875 -3.921875 6.671875 -3.246094 C 6.671875 -2.558594 6.179688 -2.066406 5.429688 -2.066406 Z M 5.429688 -2.066406 "/></g></g></g><g fill="#ffffff" fill-opacity="1"><g transform="translate(229.006329, 274.957043)"><g><path d="M 1.195312 0 L 3.457031 0 L 3.457031 -10.472656 L 1.195312 -10.472656 Z M 1.195312 0 "/></g></g></g><g fill="#ffffff" fill-opacity="1"><g transform="translate(236.635075, 274.957043)"><g><path d="M 3.457031 -2.09375 L 3.457031 -4.25 L 7.09375 -4.25 L 7.09375 -6.300781 L 3.457031 -6.300781 L 3.457031 -8.378906 L 7.480469 -8.378906 L 7.480469 -10.472656 L 1.195312 -10.472656 L 1.195312 0 L 7.644531 0 L 7.644531 -2.09375 Z M 3.457031 -2.09375 "/></g></g></g><g fill="#ffffff" fill-opacity="1"><g transform="translate(247.95724, 274.957043)"><g><path d="M 7.824219 -10.472656 L 7.824219 -4.085938 L 3.230469 -10.472656 L 1.195312 -10.472656 L 1.195312 0 L 3.410156 0 L 3.410156 -6.539062 L 8.15625 0 L 10.054688 0 L 10.054688 -10.472656 Z M 7.824219 -10.472656 "/></g></g></g><g fill="#ffffff" fill-opacity="1"><g transform="translate(262.165354, 274.957043)"><g><path d="M 8.410156 -10.472656 L 0.3125 -10.472656 L 0.3125 -8.363281 L 3.230469 -8.363281 L 3.230469 0 L 5.492188 0 L 5.492188 -8.363281 L 8.410156 -8.363281 Z M 8.410156 -10.472656 "/></g></g></g><g fill="#ffffff" fill-opacity="1"><g transform="translate(273.861352, 274.957043)"><g><path d="M 8.140625 0 L 10.609375 0 L 6.375 -10.472656 L 4.234375 -10.472656 L 0.121094 0 L 2.527344 0 L 3.246094 -1.976562 L 7.40625 -1.976562 Z M 5.328125 -7.707031 L 6.703125 -3.949219 L 3.949219 -3.949219 Z M 5.328125 -7.707031 "/></g></g></g><g fill="#ffffff" fill-opacity="1"><g transform="translate(287.561074, 274.957043)"><g><path d="M 1.195312 0 L 3.457031 0 L 3.457031 -10.472656 L 1.195312 -10.472656 Z M 1.195312 0 "/></g></g></g><g fill="#ffffff" fill-opacity="1"><g transform="translate(295.189819, 274.957043)"><g><path d="M 4.667969 0.210938 C 6.835938 0.210938 8.632812 -0.882812 8.632812 -3.140625 C 8.632812 -5.492188 6.628906 -5.984375 5.042969 -6.390625 C 3.921875 -6.660156 3.023438 -6.882812 3.023438 -7.617188 C 3.023438 -8.304688 3.753906 -8.617188 4.488281 -8.617188 C 5.339844 -8.617188 6.089844 -8.199219 6.089844 -7.285156 L 8.320312 -7.285156 C 8.320312 -9.382812 6.957031 -10.667969 4.546875 -10.667969 C 2.230469 -10.667969 0.75 -9.53125 0.75 -7.527344 C 0.75 -5.265625 2.664062 -4.804688 4.25 -4.414062 C 5.386719 -4.160156 6.34375 -3.933594 6.34375 -3.113281 C 6.34375 -2.335938 5.507812 -1.886719 4.652344 -1.886719 C 3.726562 -1.886719 2.886719 -2.378906 2.886719 -3.382812 L 0.597656 -3.382812 C 0.597656 -1.136719 2.257812 0.210938 4.667969 0.210938 Z M 4.667969 0.210938 "/></g></g></g></svg>