<svg width="217" height="178" viewBox="0 0 217 178" fill="none" xmlns="http://www.w3.org/2000/svg">
<g clip-path="url(#clip0_3_59)">
<path d="M216.892 177.394H0V177.862H216.892V177.394Z" fill="#3F3D56"/>
<path d="M109.797 48.2298H108.872V22.608C108.872 20.6607 108.493 18.7323 107.756 16.9332C107.019 15.134 105.939 13.4993 104.577 12.1222C103.215 10.7452 101.599 9.65291 99.8197 8.90768C98.0405 8.16244 96.1336 7.77887 94.2078 7.77887H40.5271C38.6013 7.77887 36.6943 8.16243 34.9152 8.90766C33.136 9.65289 31.5193 10.7452 30.1576 12.1222C28.7959 13.4992 27.7157 15.134 26.9787 16.9331C26.2417 18.7323 25.8624 20.6606 25.8624 22.608V163.171C25.8624 167.104 27.4074 170.876 30.1576 173.657C32.9077 176.438 36.6377 178 40.527 178H94.2077C98.097 178 101.827 176.438 104.577 173.657C107.327 170.876 108.872 167.104 108.872 163.171V66.4678H109.797L109.797 48.2298Z" fill="#3F3D56"/>
<path d="M105.752 22.7115V163.067C105.752 166.005 104.598 168.822 102.544 170.898C100.49 172.975 97.7046 174.142 94.8 174.142H40.8594C39.4213 174.142 37.9973 173.856 36.6687 173.299C35.3402 172.742 34.133 171.927 33.1162 170.898C32.0995 169.87 31.293 168.649 30.7428 167.305C30.1927 165.962 29.9096 164.522 29.9099 163.067V22.7115C29.9096 21.2573 30.1927 19.8172 30.7428 18.4736C31.293 17.13 32.0995 15.9091 33.1162 14.8807C34.133 13.8523 35.3402 13.0365 36.6687 12.4799C37.9973 11.9233 39.4213 11.6368 40.8594 11.6367H47.4051C47.0823 12.4356 46.959 13.3026 47.0458 14.1611C47.1327 15.0196 47.4272 15.8433 47.9033 16.5596C48.3794 17.2758 49.0224 17.8626 49.7758 18.2682C50.5291 18.6737 51.3696 18.8855 52.223 18.885H82.9761C83.8294 18.8855 84.6698 18.6735 85.423 18.2679C86.1762 17.8623 86.8191 17.2755 87.295 16.5592C87.7708 15.8429 88.0651 15.0192 88.1517 14.1607C88.2383 13.3023 88.1147 12.4354 87.7917 11.6367H94.8C97.7046 11.6368 100.49 12.8036 102.544 14.8805C104.598 16.9574 105.752 19.7743 105.752 22.7115Z" fill="white"/>
<path d="M54.2908 49.3377C62.2108 49.3377 68.6312 42.8453 68.6312 34.8364C68.6312 26.8276 62.2108 20.3351 54.2908 20.3351C46.3708 20.3351 39.9504 26.8276 39.9504 34.8364C39.9504 42.8453 46.3708 49.3377 54.2908 49.3377Z" fill="#FF6584"/>
<path d="M90.5671 104.323C91.6192 93.533 88.2327 84.3631 83.0031 83.8417C77.7735 83.3203 72.6812 91.6448 71.6291 102.435C70.577 113.225 73.9635 122.395 79.1931 122.917C84.4227 123.438 89.515 115.113 90.5671 104.323Z" fill="#3F3D56"/>
<path d="M78.8544 135.446C77.3054 112.059 83.2951 89.5067 83.3557 89.2818L84.0811 89.4817C84.0207 89.7055 78.0644 112.139 79.6046 135.395L78.8544 135.446Z" fill="#63FF75"/>
<path d="M89.8443 100.009L80.8302 103.787L81.1181 104.489L90.1322 100.712L89.8443 100.009Z" fill="#63FF75"/>
<path d="M72.3718 100.61L71.9536 101.242L80.0633 106.73L80.4815 106.098L72.3718 100.61Z" fill="#63FF75"/>
<path d="M79.805 72.8261C81.8627 51.7217 75.239 33.7865 65.0105 32.7667C54.7821 31.7469 44.8221 48.0287 42.7644 69.1331C40.7066 90.2375 47.3303 108.173 57.5588 109.193C67.7873 110.212 77.7472 93.9306 79.805 72.8261Z" fill="#E6E6E6"/>
<path d="M57.2547 133.674C54.2292 87.9917 65.9284 43.9424 66.0468 43.5028L66.7722 43.7027C66.654 44.1413 54.9882 88.0722 58.0049 133.624L57.2547 133.674Z" fill="#3F3D56"/>
<path d="M78.5291 64.7239L60.8981 72.1127L61.186 72.8152L78.817 65.4263L78.5291 64.7239Z" fill="#3F3D56"/>
<path d="M44.0169 65.8649L43.5987 66.4968L59.4603 77.2297L59.8785 76.5977L44.0169 65.8649Z" fill="#3F3D56"/>
<path d="M132.735 54.8804C135.55 26.0006 126.486 1.45768 112.49 0.0621407C98.4928 -1.33339 84.8634 20.9469 82.0475 49.8267C79.2316 78.7064 88.2956 103.249 102.293 104.645C116.289 106.04 129.919 83.7601 132.735 54.8804Z" fill="#63FF75"/>
<path d="M102.015 138.137C97.8761 75.6471 113.879 15.3919 114.041 14.7906L114.767 14.9905C114.605 15.5907 98.635 75.7276 102.765 138.087L102.015 138.137Z" fill="#3F3D56"/>
<path d="M131.042 43.9224L106.915 54.0334L107.203 54.7359L131.33 44.6249L131.042 43.9224Z" fill="#3F3D56"/>
<path d="M83.6844 45.4709L83.2662 46.1028L104.972 60.7896L105.39 60.1576L83.6844 45.4709Z" fill="#3F3D56"/>
<path d="M29.9099 137.351L29.4473 163.664C29.4473 169.89 34.811 174.937 40.8594 174.937H94.8C100.848 174.937 106.214 169.89 106.214 163.664L105.752 137.582C78.558 126.923 53.4121 127.591 29.9099 137.351Z" fill="#63FF75"/>
<path d="M144.983 45.8606L147.854 43.5384C145.624 43.2895 144.707 44.5197 144.332 45.4933C142.59 44.7616 140.693 45.7205 140.693 45.7205L146.438 47.8295C146.148 47.0467 145.643 46.3637 144.983 45.8606Z" fill="#3F3D56"/>
<path d="M74.8073 25.36L77.6785 23.0378C75.448 22.789 74.5315 24.0191 74.1564 24.9928C72.4139 24.2611 70.5169 25.22 70.5169 25.22L76.2616 27.3289C75.9718 26.5462 75.4673 25.8632 74.8073 25.36Z" fill="#3F3D56"/>
<path d="M189.272 16.2136L192.143 13.8915C189.913 13.6426 188.996 14.8727 188.621 15.8464C186.879 15.1147 184.982 16.0736 184.982 16.0736L190.726 18.1825C190.437 17.3998 189.932 16.7168 189.272 16.2136Z" fill="#3F3D56"/>
<path d="M184.733 123.019L184.684 126.975C184.679 127.357 184.591 127.733 184.425 128.076C184.26 128.419 184.021 128.72 183.726 128.959C183.431 129.197 183.087 129.367 182.72 129.455C182.352 129.543 181.97 129.547 181.601 129.468C181.222 129.387 180.867 129.219 180.562 128.979C180.257 128.738 180.009 128.431 179.839 128.079C179.669 127.728 179.579 127.342 179.578 126.951C179.577 126.56 179.664 126.173 179.832 125.821L181.139 123.081L183.849 103.194L182.809 89.9053L187.897 89.6587L188.979 104.859L184.733 123.019Z" fill="#FFB9B9"/>
<path d="M159.804 144.036L154.912 170.672L157.358 170.291L166.389 143.465L159.804 144.036Z" fill="#FFB9B9"/>
<path d="M183.228 144.321L186.332 171.623L188.966 171.243L189.625 144.131L183.228 144.321Z" fill="#FFB9B9"/>
<path d="M211.073 136.33C204.06 142.028 195.849 150.396 187.673 147.278C179.141 144.025 169.294 143.819 158.205 145.272C160.853 128.472 164.124 112.576 168.364 98.0887L182.475 100.372C182.694 100.616 182.167 101.935 182.381 102.179C186.348 106.696 190.393 110.197 192.838 114.85C196.44 121.774 201.315 127.94 207.202 133.017L211.073 136.33Z" fill="#E6E6E6"/>
<path opacity="0.5" d="M217 139.279C209.987 145.138 195.284 154.918 187.108 151.713C178.577 148.368 168.448 148.63 157.358 150.124C157.884 146.692 158.445 143.281 159.042 139.893C161.445 126.241 205.259 131.037 211.167 136.235L217 139.279Z" fill="#E6E6E6"/>
<path d="M188.758 90.5104C186.12 89.7304 183.43 90.1176 180.705 91.3158L181.692 83.814C181.592 82.9876 181.821 82.1548 182.328 81.4989C182.835 80.843 183.579 80.4177 184.397 80.3165C185.214 80.2153 186.037 80.4466 186.686 80.9594C187.335 81.4722 187.755 82.2246 187.855 83.051L188.758 90.5104Z" fill="#2F2E41"/>
<path d="M176.737 74.7823C179.646 74.7823 182.005 72.3972 182.005 69.4551C182.005 66.5129 179.646 64.1279 176.737 64.1279C173.827 64.1279 171.469 66.5129 171.469 69.4551C171.469 72.3972 173.827 74.7823 176.737 74.7823Z" fill="#FFB9B9"/>
<path d="M186.52 84.2951L174.949 81.5364C176.667 79.0393 176.316 76.1124 174.949 72.9748L180.594 71.8333C181.219 73.9988 181.977 75.9805 183.04 77.541L186.52 84.2951Z" fill="#FFB9B9"/>
<path d="M182.475 101.133L168.176 99.04L168.652 96.3321C168.426 89.2771 169.576 83.5025 171.751 78.6825L184.357 79.4436C185.974 80.7517 187.117 82.5648 187.607 84.5995C188.097 86.6341 187.906 88.7755 187.065 90.6892L182.663 99.4205L182.475 101.133Z" fill="#2F2E41"/>
<path d="M157.69 177.542C157.03 177.846 156.477 175.379 155.921 175.932C154.364 177.479 151.98 177.816 149.902 177.14L150.629 177.132C150.504 177.091 150.388 177.025 150.288 176.938C150.189 176.851 150.108 176.744 150.051 176.624C149.993 176.504 149.961 176.373 149.955 176.24C149.949 176.107 149.969 175.974 150.016 175.85C150.071 175.701 150.161 175.567 150.279 175.461C150.396 175.355 150.538 175.279 150.691 175.241L152.346 174.822L154.946 170.199L157.779 169.836L157.851 169.955C158.399 170.847 158.752 171.848 158.887 172.889C159.022 173.931 158.936 174.99 158.634 175.995C158.398 176.758 158.077 177.363 157.69 177.542Z" fill="#2F2E41"/>
<path d="M188.922 177.542C188.262 177.846 187.709 175.379 187.153 175.932C185.596 177.479 183.212 177.816 181.134 177.14L181.861 177.132C181.736 177.091 181.62 177.025 181.52 176.938C181.421 176.851 181.34 176.744 181.283 176.624C181.226 176.504 181.193 176.373 181.187 176.24C181.181 176.107 181.201 175.974 181.248 175.85C181.303 175.701 181.393 175.567 181.511 175.461C181.629 175.355 181.77 175.279 181.923 175.241L183.579 174.822L186.178 170.199L189.012 169.836L189.083 169.955C189.631 170.847 189.984 171.848 190.119 172.889C190.254 173.931 190.168 174.99 189.866 175.995C189.63 176.758 189.31 177.363 188.922 177.542Z" fill="#2F2E41"/>
<path d="M183.294 91.9054H183.159C180.615 89.6762 178.404 87.1772 180.19 84.0486C178.675 80.1621 176.987 76.1261 177.089 73.6293C177.196 71.7832 176.609 69.9645 175.444 68.5385C173.835 66.6378 173.477 65.7889 170.538 66.5077C170.528 65.7445 170.671 64.9871 170.959 64.2815C171.247 63.576 171.673 62.9369 172.213 62.4033C172.753 61.8697 173.394 61.4526 174.098 61.1773C174.802 60.9021 175.554 60.7744 176.309 60.8022L178.145 60.8697C179.549 60.9213 184.038 61.502 185.002 62.4392C185.49 62.9304 185.86 63.5291 186.082 64.1886C186.304 64.8481 186.373 65.5506 186.282 66.2412C186.102 67.7909 186.585 69.1592 187.877 70.3065C190.35 72.8925 191.37 75.5758 189.968 78.4211C188.909 81.4333 188.96 83.9127 191.69 85.1046C192.577 88.5454 186.81 91.9054 183.294 91.9054Z" fill="#2F2E41"/>
<path d="M156.094 108.457C156.823 107.775 156.299 106.001 154.921 104.495C153.544 102.989 151.836 102.322 151.106 103.004C150.377 103.687 150.901 105.461 152.279 106.967C153.656 108.472 155.364 109.14 156.094 108.457Z" fill="#3F3D56"/>
<path d="M160.913 96.7451C163.829 96.7451 166.193 94.3546 166.193 91.4058C166.193 88.4569 163.829 86.0664 160.913 86.0664C157.997 86.0664 155.633 88.4569 155.633 91.4058C155.633 94.3546 157.997 96.7451 160.913 96.7451Z" fill="#63FF75"/>
<path d="M169.78 125.43C167.412 124.345 165.206 122.93 163.227 121.225C159.231 117.732 156.33 112.718 156.114 107.3C155.907 102.1 158.086 97.2111 160.391 92.6923C160.681 92.1238 160.974 91.5569 161.27 90.9916C161.382 90.7757 161.731 90.9207 161.618 91.1379C159.227 95.7269 156.718 100.576 156.491 105.868C156.252 111.446 158.947 116.762 162.957 120.473C165.026 122.356 167.369 123.906 169.904 125.068" fill="#3F3D56"/>
<path d="M158.898 91.26L158.653 91.3173L159.448 94.7977L159.693 94.7405L158.898 91.26Z" fill="#3F3D56"/>
<path d="M162.526 119.674C163.513 119.549 164.108 117.798 163.856 115.762C163.604 113.727 162.6 112.179 161.614 112.304C160.628 112.428 160.032 114.18 160.284 116.215C160.536 118.25 161.54 119.798 162.526 119.674Z" fill="#3F3D56"/>
<path d="M168.364 119.207L167.84 123.128C167.79 123.506 167.657 123.869 167.451 124.189C167.245 124.509 166.972 124.779 166.651 124.979C166.329 125.18 165.968 125.306 165.593 125.348C165.217 125.39 164.837 125.348 164.48 125.224C164.114 125.096 163.782 124.887 163.508 124.61C163.234 124.334 163.025 123.999 162.898 123.629C162.771 123.259 162.729 122.865 162.775 122.477C162.821 122.088 162.953 121.715 163.163 121.386L164.79 118.827L169.87 99.4205L170.434 86.1025L175.514 86.4831L174.761 101.704L168.364 119.207Z" fill="#FFB9B9"/>
<path d="M176.172 88.9564C173.647 87.858 170.931 87.9118 168.082 88.7662L169.964 81.4413C169.964 80.6087 170.291 79.8102 170.873 79.2215C171.455 78.6328 172.245 78.302 173.068 78.302C173.891 78.302 174.681 78.6328 175.263 79.2215C175.845 79.8102 176.172 80.6087 176.172 81.4413V88.9564Z" fill="#2F2E41"/>
</g>
<defs>
<clipPath id="clip0_3_59">
<rect width="217" height="178" fill="white"/>
</clipPath>
</defs>
</svg>
