<svg xmlns="http://www.w3.org/2000/svg" xmlns:xlink="http://www.w3.org/1999/xlink" width="500" zoomAndPan="magnify" viewBox="0 0 375 374.999991" height="500" preserveAspectRatio="xMidYMid meet" version="1.0"><defs><clipPath id="20d43ee652"><path d="M 70.816406 70.816406 L 304.066406 70.816406 L 304.066406 304.066406 L 70.816406 304.066406 Z M 70.816406 70.816406 " clip-rule="nonzero"/></clipPath></defs><rect x="-37.5" width="450" fill="#ffffff" y="-37.499999" height="449.999989" fill-opacity="1"/><rect x="-37.5" width="450" fill="#15803d" y="-37.499999" height="449.999989" fill-opacity="1"/><g clip-path="url(#20d43ee652)"><path fill="#ffffff" d="M 197.265625 164.492188 C 194.773438 162 191.28125 160.40625 187.445312 160.40625 C 183.609375 160.40625 180.117188 161.953125 177.625 164.492188 C 175.132812 166.984375 173.539062 170.472656 173.539062 174.3125 C 173.539062 178.148438 175.085938 181.640625 177.625 184.132812 C 180.117188 186.621094 183.609375 188.167969 187.445312 188.167969 C 191.28125 188.167969 194.773438 186.621094 197.265625 184.132812 C 199.757812 181.640625 201.300781 178.148438 201.300781 174.3125 C 201.300781 170.625 199.855469 167.285156 197.5625 164.792969 C 197.464844 164.691406 197.363281 164.59375 197.265625 164.492188 Z M 187.445312 146.203125 C 195.21875 146.203125 202.25 149.34375 207.332031 154.425781 C 207.480469 154.574219 207.632812 154.726562 207.730469 154.875 C 212.566406 159.910156 215.554688 166.785156 215.554688 174.3125 C 215.554688 182.039062 212.414062 189.066406 207.332031 194.148438 L 207.28125 194.199219 C 202.199219 199.28125 195.171875 202.421875 187.445312 202.421875 C 179.71875 202.421875 172.691406 199.28125 167.609375 194.199219 C 162.523438 189.113281 159.386719 182.085938 159.386719 174.3125 C 159.386719 166.539062 162.523438 159.507812 167.609375 154.425781 C 172.644531 149.34375 179.671875 146.203125 187.445312 146.203125 Z M 118.265625 238.207031 C 115.226562 235.714844 114.726562 231.28125 117.21875 228.191406 C 119.710938 225.148438 124.148438 224.652344 127.238281 227.144531 C 137.652344 235.566406 145.429688 245.085938 150.613281 255.753906 C 155.796875 266.417969 158.289062 278.132812 158.089844 290.890625 C 158.039062 294.777344 154.847656 297.917969 150.910156 297.867188 C 150.113281 297.867188 149.367188 297.71875 148.621094 297.46875 C 125.691406 289.394531 106.003906 274.292969 92.199219 254.707031 C 78.742188 235.765625 70.816406 212.539062 70.816406 187.519531 C 70.816406 183.582031 74.007812 180.394531 77.945312 180.394531 C 110.140625 180.394531 139.300781 193.453125 160.429688 214.535156 C 172.292969 226.394531 181.613281 240.75 187.496094 256.800781 C 193.375 240.75 202.695312 226.394531 214.558594 214.535156 C 235.640625 193.453125 264.796875 180.394531 297.046875 180.394531 C 300.984375 180.394531 304.171875 183.582031 304.171875 187.519531 C 304.171875 212.539062 296.25 235.765625 282.839844 254.753906 C 282.742188 254.90625 282.59375 255.105469 282.441406 255.253906 C 268.636719 274.542969 249.097656 289.496094 226.371094 297.519531 C 222.683594 298.816406 218.597656 296.871094 217.300781 293.183594 C 217 292.285156 216.851562 291.339844 216.902344 290.441406 C 216.75 277.882812 219.292969 266.320312 224.425781 255.753906 C 229.609375 245.085938 237.386719 235.515625 247.804688 227.144531 C 250.84375 224.652344 255.328125 225.148438 257.820312 228.191406 C 260.3125 231.230469 259.816406 235.714844 256.773438 238.207031 C 248.003906 245.335938 241.472656 253.261719 237.238281 261.933594 C 234.496094 267.566406 232.699219 273.546875 231.804688 279.925781 C 247.503906 272.398438 260.960938 261.035156 270.980469 247.03125 C 271.078125 246.878906 271.179688 246.730469 271.277344 246.582031 C 281.746094 231.777344 288.375 214.035156 289.769531 194.847656 C 264.449219 196.640625 241.621094 207.65625 224.726562 224.550781 C 206.1875 243.09375 194.722656 268.660156 194.722656 296.972656 C 194.722656 300.910156 191.53125 304.097656 187.59375 304.097656 C 183.65625 304.097656 180.46875 300.910156 180.46875 296.972656 C 180.46875 268.710938 169.003906 243.09375 150.464844 224.550781 C 133.566406 207.65625 110.789062 196.640625 85.421875 194.847656 C 86.765625 214.035156 93.445312 231.777344 103.910156 246.582031 C 113.980469 260.785156 127.535156 272.300781 143.386719 279.925781 C 142.488281 273.546875 140.644531 267.566406 137.953125 261.933594 C 133.566406 253.210938 127.039062 245.335938 118.265625 238.207031 Z M 115.078125 115.050781 C 124.546875 105.632812 135.808594 98.003906 148.320312 92.824219 C 160.332031 87.839844 173.539062 85.097656 187.445312 85.097656 C 201.351562 85.097656 214.558594 87.839844 226.570312 92.824219 C 239.082031 98.003906 250.34375 105.582031 259.816406 115.050781 C 262.605469 117.792969 267.089844 117.792969 269.832031 115 C 272.574219 112.210938 272.574219 107.726562 269.78125 104.984375 C 259.066406 94.269531 246.207031 85.644531 231.953125 79.714844 C 218.199219 74.03125 203.195312 70.890625 187.445312 70.890625 C 171.695312 70.890625 156.695312 74.03125 142.9375 79.714844 C 128.632812 85.644531 115.824219 94.269531 105.058594 104.984375 C 102.265625 107.726562 102.265625 112.210938 105.007812 115 C 107.800781 117.792969 112.285156 117.792969 115.078125 115.050781 Z M 243.316406 131.699219 C 246.058594 134.488281 246.058594 138.976562 243.265625 141.714844 C 240.476562 144.457031 235.992188 144.457031 233.25 141.667969 C 227.269531 135.683594 220.140625 130.902344 212.214844 127.609375 L 211.917969 127.460938 C 204.390625 124.421875 196.117188 122.726562 187.445312 122.726562 C 178.773438 122.726562 170.5 124.421875 162.972656 127.460938 L 162.675781 127.609375 C 154.75 130.902344 147.574219 135.734375 141.640625 141.667969 C 138.898438 144.457031 134.414062 144.457031 131.625 141.714844 C 128.832031 138.976562 128.832031 134.488281 131.574219 131.699219 C 138.851562 124.371094 147.574219 118.492188 157.242188 114.503906 C 157.390625 114.453125 157.492188 114.402344 157.640625 114.355469 C 166.859375 110.566406 176.980469 108.472656 187.496094 108.472656 C 198.011719 108.472656 208.078125 110.566406 217.351562 114.355469 C 217.5 114.402344 217.597656 114.453125 217.75 114.503906 C 227.316406 118.492188 236.039062 124.371094 243.316406 131.699219 Z M 243.316406 131.699219 " fill-opacity="1" fill-rule="evenodd"/></g></svg>